<svg width="87" height="87" viewBox="0 0 87 87" fill="none" xmlns="http://www.w3.org/2000/svg">
<g clip-path="url(#clip0_21_23)">
<path d="M43.5 87C67.5244 87 87 67.5244 87 43.5C87 19.4756 67.5244 0 43.5 0C19.4756 0 0 19.4756 0 43.5C0 67.5244 19.4756 87 43.5 87Z" fill="#2F89CE"/>
<path d="M20.3377 44.3137L30.3386 48.0427L34.2373 60.5861C34.4067 61.4337 35.4237 61.6032 36.1017 61.0947L41.6954 56.518C42.2039 56.0095 43.0515 56.0095 43.7294 56.518L53.7303 63.8067C54.4084 64.3152 55.4255 63.9763 55.5949 63.1287L63.0532 27.5327C63.2226 26.6851 62.375 25.8375 61.5277 26.1766L20.3377 42.11C19.3207 42.449 19.3207 43.9746 20.3377 44.3137ZM33.7288 46.1781L53.3912 34.1434C53.7303 33.9737 54.0694 34.4822 53.7303 34.6519L37.6272 49.7379C37.1187 50.2464 36.6102 50.9244 36.6102 51.772L36.1017 55.8401C36.1017 56.3486 35.2543 56.518 35.0847 55.8401L33.0506 48.3818C32.5421 47.5342 32.8812 46.5172 33.7288 46.1781Z" fill="white"/>
</g>
<defs>
<clipPath id="clip0_21_23">
<rect width="87" height="87" fill="white"/>
</clipPath>
</defs>
</svg>
