<svg width="87" height="87" viewBox="0 0 87 87" fill="none" xmlns="http://www.w3.org/2000/svg">
<g clip-path="url(#clip0_21_22)">
<path d="M43.5 87C67.5244 87 87 67.5244 87 43.5C87 19.4756 67.5244 0 43.5 0C19.4756 0 0 19.4756 0 43.5C0 67.5244 19.4756 87 43.5 87Z" fill="url(#paint0_linear_21_22)"/>
<path d="M57.8132 26.1H31.3617C28.3755 26.1 26.1 28.3755 26.1 31.3618V57.8132C26.1 60.7995 28.3755 63.075 31.3617 63.075H57.8132C60.7995 63.075 63.075 60.7995 63.075 57.8132V31.3618C63.075 28.3755 60.7995 26.1 57.8132 26.1ZM44.5875 55.68C50.7025 55.68 55.68 50.8448 55.68 45.0142C55.68 44.0187 55.5377 42.881 55.2532 42.0277H58.382V57.102C58.382 57.8132 57.8132 58.5243 56.96 58.5243H32.215C31.504 58.5243 30.793 57.9555 30.793 57.102V41.8855H34.0637C33.7795 42.881 33.6372 43.8765 33.6372 44.872C33.495 50.8448 38.4725 55.68 44.5875 55.68ZM44.5875 51.4137C40.6055 51.4137 37.477 48.285 37.477 44.4453C37.477 40.6055 40.6055 37.477 44.5875 37.477C48.5695 37.477 51.698 40.6055 51.698 44.4453C51.698 48.4273 48.5695 51.4137 44.5875 51.4137ZM58.2397 36.197C58.2397 37.0503 57.5287 37.7613 56.6755 37.7613H52.6935C51.8402 37.7613 51.1292 37.0503 51.1292 36.197V32.3573C51.1292 31.504 51.8402 30.793 52.6935 30.793H56.6755C57.5287 30.793 58.2397 31.504 58.2397 32.3573V36.197Z" fill="white"/>
</g>
<defs>
<linearGradient id="paint0_linear_21_22" x1="18.4875" y1="77.2125" x2="76.125" y2="17.4" gradientUnits="userSpaceOnUse">
<stop stop-color="#EEA054"/>
<stop offset="0.502762" stop-color="#D64763"/>
<stop offset="1" stop-color="#B62A99"/>
</linearGradient>
<clipPath id="clip0_21_22">
<rect width="87" height="87" fill="white"/>
</clipPath>
</defs>
</svg>
